<svg xmlns="http://www.w3.org/2000/svg" viewBox="0 0 680.2 517.09"><defs><style>.cls-1{fill:none;stroke:#000;stroke-miterlimit:10;stroke-width:5px;}.cls-2{font-size:85.38px;font-family:Montserrat-Regular, Montserrat;letter-spacing:-0.02em;}.cls-3{letter-spacing:0em;}</style></defs><title>plate_1</title><g id="Layer_2" data-name="Layer 2"><g id="Layer_1-2" data-name="Layer 1"><circle class="cls-1" cx="364.7" cy="254.59" r="123"/><path class="cls-1" d="M224.3,151.29a86.28,86.28,0,0,1,.5,38.5,92.52,92.52,0,0,1-16.5,34.9c-14.5,16.5-32.6,27-54.5,32v217.9c0,10.6-3.3,20.8-10.8,28.3a40.6,40.6,0,0,1-29.2,11.7,39.55,39.55,0,0,1-27.39-11.7c-7.5-7.5-12.61-17.7-12.61-28.3V256.69A92.59,92.59,0,0,1,21,225a85.34,85.34,0,0,1-16-73.6L35.21,15a16,16,0,0,1,31.65,3.55v144H84.23L101.32,14.5A13.38,13.38,0,0,1,105.8,6a12.81,12.81,0,0,1,8-3.4c4.2,0,7.4,1.21,9.8,3.4s3.2,5.2,4.5,8.47l17.1,148.09h16.6v-144c0-3.93,2.3-7.73,4-10.68,3.5-2.95,7.1-4.84,11-5.31s7,.61,11.1,2.93a16.39,16.39,0,0,1,6.3,9.61Z"/><path class="cls-1" d="M553.3,349.69a66.3,66.3,0,0,1-20.8-14,87.24,87.24,0,0,1-14.7-20.9,87.86,87.86,0,0,1-3.9-24.6l-.1-113.8a196.11,196.11,0,0,1,12.26-63.86,214.95,214.95,0,0,0-312-11.36l10.2,46.12a86.28,86.28,0,0,1,.5,38.5,92.52,92.52,0,0,1-16.5,34.9c-14.5,16.5-32.6,27-54.5,32v43.83c19.5,98.67,106.5,173.07,210.9,173.07A215,215,0,0,0,556.89,351C555.68,350.62,554.48,350.18,553.3,349.69Z"/><path class="cls-1" d="M677.7,474.59a40,40,0,1,1-80,0v-120H580.9a65,65,0,0,1-24.6-4.9,66.3,66.3,0,0,1-20.8-14,87.24,87.24,0,0,1-14.7-20.9,87.86,87.86,0,0,1-3.9-24.6l-.1-113.8A192.75,192.75,0,0,1,549.5,72.87,184.45,184.45,0,0,1,633.8,4.93c4-1.94,10.1-2.66,15.3-2.1a31.91,31.91,0,0,1,24.8,16.79c2.5,4.61,2.9,9.75,3.8,15Z"/><text class="cls-2" transform="translate(274.59 282.23)">K<tspan class="cls-3" x="58.65" y="0">cal</tspan></text></g></g></svg>